<?xml version="1.0" encoding="UTF-8"?>
<svg xmlns="http://www.w3.org/2000/svg" width="1024" height="112">
<path id="sidmeiers" style="fill:#2e2215" d="M 397.73633 0.80078125 C 394.37968 0.80078125 393.11328 3.0584113 393.11328 4.7050781 C 393.11328 7.1539668 394.80175 8.2738626 396.95508 9.1816406 C 399.04509 10.047196 400.14258 10.848566 400.14258 12.115234 C 400.14258 13.191899 399.21448 14.078125 397.75781 14.078125 C 396.13226 14.078125 395.37112 13.446381 394.37891 12.623047 C 394.14667 12.433047 393.83101 12.516572 393.66211 12.791016 L 393.11328 13.65625 C 392.88106 14.015139 393.05023 14.163141 393.24023 14.332031 C 393.57799 14.648699 395.2018 16 397.77734 16 C 400.5218 16 402.48633 14.205322 402.48633 12.009766 C 402.48633 9.434209 400.39616 8.2734721 397.94727 7.28125 C 396.19505 6.5634721 395.26563 5.8244271 395.26562 4.6210938 C 395.26562 3.8399827 395.87899 2.7207031 397.65234 2.7207031 C 398.87678 2.7207031 399.6786 3.249566 400.50195 3.7773438 C 400.7975 3.9673438 401.07133 3.8408506 401.24023 3.5664062 L 401.76758 2.7636719 C 401.97871 2.4470054 401.81149 2.1504773 401.64258 2.0449219 C 401.43148 1.8971442 399.84744 0.80078125 397.73633 0.80078125 z M 418.11328 0.80078125 C 417.89612 0.80078125 417.69922 0.9957472 417.69922 1.2128906 L 417.69922 15.587891 C 417.69922 15.805035 417.89612 16 418.11328 16 L 419.54492 16 C 419.76206 16 419.95898 15.805035 419.95898 15.587891 L 419.95898 1.2128906 C 419.95898 0.99574721 419.76206 0.80078125 419.54492 0.80078125 L 418.11328 0.80078125 z M 436.5918 0.80078125 C 436.37465 0.80078125 436.19922 0.99574742 436.19922 1.2128906 L 436.19922 15.587891 C 436.19922 15.805034 436.37465 16 436.5918 16 L 441.58594 16 C 445.7768 16 449.20703 12.591018 449.20703 8.421875 C 449.20703 4.2093041 445.7768 0.80078125 441.58594 0.80078125 L 436.5918 0.80078125 z M 483.30469 0.80078125 C 483.1358 0.80078125 482.968 0.94829854 482.92578 1.1171875 L 480.30664 15.302734 C 480.26442 15.598289 480.41342 15.789062 480.70898 15.789062 L 482.08008 15.789062 C 482.24897 15.789062 482.43983 15.641919 482.46094 15.494141 L 483.98047 6.0566406 L 484.06445 6.0566406 L 487.88672 15.767578 C 487.92894 15.894245 488.07525 16 488.24414 16 L 488.625 16 C 488.815 16 488.94214 15.894245 488.98438 15.767578 L 492.7832 6.0566406 L 492.84766 6.0566406 L 494.41016 15.494141 C 494.45238 15.641919 494.62055 15.789062 494.81055 15.789062 L 496.18359 15.789062 C 496.47915 15.789062 496.62584 15.598289 496.5625 15.302734 L 493.9668 1.1171875 C 493.92458 0.94829854 493.75483 0.80078125 493.58594 0.80078125 L 493.24805 0.80078125 C 493.10027 0.80078125 492.93089 0.90458404 492.88867 1.03125 L 488.49805 11.820312 L 488.41406 11.820312 L 484.00195 1.03125 C 483.95973 0.90458404 483.76925 0.80078125 483.64258 0.80078125 L 483.30469 0.80078125 z M 512.21289 0.80078125 C 511.97403 0.80078125 511.80078 0.99574859 511.80078 1.2128906 L 511.80078 15.587891 C 511.80078 15.805033 511.97403 16 512.21289 16 L 520.89844 16 C 521.13729 16 521.31055 15.805033 521.31055 15.587891 L 521.31055 14.392578 C 521.31055 14.175435 521.13729 13.980469 520.89844 13.980469 L 514.03711 13.980469 L 514.03711 9.3125 L 519.83398 9.3125 C 520.05112 9.3125 520.24609 9.1392477 520.24609 8.9003906 L 520.24609 7.6835938 C 520.24609 7.4664507 520.05112 7.2714844 519.83398 7.2714844 L 514.03711 7.2714844 L 514.03711 2.8417969 L 520.89844 2.8417969 C 521.13729 2.8417969 521.31055 2.6448774 521.31055 2.4277344 L 521.31055 1.2128906 C 521.31055 0.99574859 521.13729 0.80078125 520.89844 0.80078125 L 512.21289 0.80078125 z M 537.01172 0.80078125 C 536.79456 0.80078125 536.59961 0.99574716 536.59961 1.2128906 L 536.59961 15.587891 C 536.59961 15.805035 536.79456 16 537.01172 16 L 538.44531 16 C 538.66245 16 538.85742 15.805035 538.85742 15.587891 L 538.85742 1.2128906 C 538.85742 0.99574717 538.66245 0.80078125 538.44531 0.80078125 L 537.01172 0.80078125 z M 555.51172 0.80078125 C 555.27286 0.80078125 555.09961 0.99574852 555.09961 1.2128906 L 555.09961 15.587891 C 555.09961 15.805033 555.27286 16 555.51172 16 L 564.19922 16 C 564.43807 16 564.61133 15.805033 564.61133 15.587891 L 564.61133 14.392578 C 564.61133 14.175435 564.43807 13.980469 564.19922 13.980469 L 557.33594 13.980469 L 557.33594 9.3125 L 563.13477 9.3125 C 563.35191 9.3125 563.54687 9.1392477 563.54688 8.9003906 L 563.54688 7.6835938 C 563.54688 7.4664507 563.35191 7.2714844 563.13477 7.2714844 L 557.33594 7.2714844 L 557.33594 2.8417969 L 564.19922 2.8417969 C 564.43807 2.8417969 564.61133 2.6448774 564.61133 2.4277344 L 564.61133 1.2128906 C 564.61133 0.99574852 564.43807 0.80078125 564.19922 0.80078125 L 555.51172 0.80078125 z M 580.3125 0.80078125 C 580.07365 0.80078125 579.90039 0.99574859 579.90039 1.2128906 L 579.90039 15.587891 C 579.90039 15.805034 580.07365 16 580.3125 16 L 581.72461 16 C 581.94175 16 582.13672 15.805034 582.13672 15.587891 L 582.13672 10.050781 L 585.41602 10.050781 L 588.25977 15.716797 C 588.34663 15.890511 588.47794 16 588.7168 16 L 590.34375 16 C 590.71289 16 590.86489 15.65338 590.71289 15.371094 L 587.73828 9.8554688 C 589.62742 9.0954687 590.95312 7.4449796 590.95312 5.4472656 C 590.95312 2.8632656 588.82446 0.80078125 586.21875 0.80078125 L 580.3125 0.80078125 z M 626.43555 0.80078125 C 623.0789 0.80078125 621.8125 3.0584113 621.8125 4.7050781 C 621.8125 7.1539668 623.50097 8.2738626 625.6543 9.1816406 C 627.74431 10.047195 628.8418 10.848566 628.8418 12.115234 C 628.8418 13.191899 627.9137 14.078125 626.45703 14.078125 C 624.83148 14.078125 624.07229 13.446381 623.08008 12.623047 C 622.84784 12.433047 622.53023 12.516572 622.36133 12.791016 L 621.8125 13.65625 C 621.58028 14.015139 621.74945 14.163141 621.93945 14.332031 C 622.27721 14.648699 623.90298 16 626.47852 16 C 629.22298 16 631.18555 14.205322 631.18555 12.009766 C 631.18555 9.4342092 629.09537 8.2734721 626.64648 7.28125 C 624.89426 6.5634721 623.9668 5.8244271 623.9668 4.6210938 C 623.9668 3.8399827 624.57821 2.7207031 626.35156 2.7207031 C 627.576 2.7207031 628.37782 3.249566 629.20117 3.7773438 C 629.49672 3.9673437 629.77251 3.8408506 629.94141 3.5664062 L 630.46875 2.7636719 C 630.67988 2.4470054 630.51071 2.1504773 630.3418 2.0449219 C 630.1307 1.8971442 628.54666 0.80078125 626.43555 0.80078125 z M 606.26758 0.8671875 C 605.56807 0.86668284 605.00058 1.4333019 605 2.1328125 C 604.9995 2.833086 605.56731 3.4008958 606.26758 3.4003906 C 606.40582 3.3999253 606.54305 3.3768336 606.67383 3.3320312 C 606.72763 3.4955239 606.755 3.6773186 606.73047 3.953125 C 606.66735 4.6627327 605.25 6.2714844 605.25 6.2714844 L 605.83789 6.8574219 C 605.83789 6.8574219 607.16002 5.4311114 607.52344 4.5703125 C 607.85745 3.6198608 608.04686 2.8767266 607.83594 2.0429688 C 607.69621 1.5214933 607.3837 1.237715 607.09375 1.0703125 C 606.76857 0.88256711 606.5166 0.86764553 606.26758 0.8671875 z M 438.41406 2.8632812 L 441.3457 2.8632812 C 444.5377 2.8632813 446.79688 5.2081613 446.79688 8.421875 C 446.79688 11.613875 444.5377 13.9375 441.3457 13.9375 L 438.41406 13.9375 L 438.41406 2.8632812 z M 582.17969 2.90625 L 586.04492 2.90625 C 587.45635 2.90625 588.69336 4.0788054 588.69336 5.4902344 C 588.69336 6.9885194 587.45635 8.1835938 586.04492 8.1835938 L 582.17969 8.1835938 L 582.17969 2.90625 z"/>
<path id="civilization" style="fill:#2e2215" d="M 803.22461 30.064453 L 803.22461 93.5625 C 803.22461 95.585946 803.51368 102.1367 801.7793 104.73828 C 800.33398 106.76172 798.98374 107.34115 797.92383 107.4375 L 797.92383 108.40039 L 819.60352 108.40039 L 819.60352 107.4375 C 817.96551 107.34115 816.55794 106.28127 815.78711 103.67969 C 814.63086 99.921853 814.2828 91.345821 814.24609 90.09375 L 814.24609 55.982422 L 866.02344 112 L 866.89062 112 L 866.89062 49.720703 C 866.89062 47.11913 866.88994 41.434261 868.43164 37.580078 C 869.20246 35.652985 870.84048 35.651694 871.90039 35.458984 L 871.90039 34.400391 L 850.41406 34.400391 L 850.41406 35.458984 C 852.53388 35.458984 852.78648 35.940749 853.75 37.482422 C 855.38804 39.794934 855.48437 42.108061 855.48438 45.191406 L 855.48438 86 L 804.40039 30.064453 L 803.22461 30.064453 z M 519.91992 32.400391 L 494.6875 88.435547 C 494.6875 88.435547 490.70474 97.85298 487.09961 104.44531 C 485.77144 106.98806 484.23332 107.27063 483 107.45898 L 483 108.40039 L 502.5 108.40039 L 502.5 107.45898 C 501.74102 107.27063 500.1803 107.36486 499.80078 105.29297 C 499.42131 103.50364 500.51583 100.58266 501.6543 97.851562 L 505.54492 88.435547 L 535.41211 88.435547 L 539.58789 98.228516 C 540.72635 100.77126 541.17191 103.692 540.50781 105.29297 C 539.93858 106.61144 538.7989 107.17645 537.4707 107.45898 L 537.4707 108.40039 L 559.00781 108.40039 L 559.00781 107.45898 C 557.77448 106.89392 556.82565 106.4218 555.87695 105.57422 C 553.41028 103.314 550.32049 95.687089 547 88.435547 L 521.24805 32.400391 L 519.91992 32.400391 z M 37.228516 32.402344 C 13.666916 32.690854 0.39639976 50.579354 0.01171875 71.255859 C -0.46912829 92.605553 14.821214 111.64631 38.382812 110.87695 C 45.307037 110.68462 49.635303 110.39746 56.367188 108.18555 L 59.443359 107.03125 L 60.597656 94.240234 L 59.347656 94.240234 L 57.423828 95.875 C 51.365132 100.58732 46.076397 101.74069 38.382812 101.64453 C 20.302889 101.35603 12.225542 86.931067 12.033203 71.351562 C 11.840863 58.945656 16.936102 48.944568 28.091797 43.462891 C 35.78538 39.712271 51.366066 41.826745 57.232422 46.539062 L 58.771484 48.173828 L 59.828125 48.173828 L 59.828125 34.230469 L 58.673828 34.230469 C 58.192979 35.19217 57.038804 35.479451 55.884766 35.287109 C 49.922238 34.613922 44.537419 32.306175 37.228516 32.402344 z M 735.81641 32.5 C 711.32072 32.5 697.17383 51.109773 697.17383 70.679688 C 697.17383 90.921116 710.27636 110.30078 735.81641 110.30078 C 761.26157 110.30078 774.17383 91.402367 774.17383 70.009766 C 774.17383 48.713096 757.7486 32.5 735.81641 32.5 z M 89 34.400391 L 89 35.132812 C 90.971456 35.510748 91.890854 36.383643 92.871094 38.121094 C 93.851335 39.858538 94.365234 42.879641 94.365234 49.667969 L 94.365234 93.132812 C 94.365234 99.92114 93.851335 102.94029 92.871094 104.67773 C 91.890854 106.41518 90.971456 107.28808 89 107.66602 L 89 108.40039 L 110.73242 108.40039 L 110.73242 107.66602 C 108.76096 107.28808 107.84158 106.41518 106.86133 104.67773 C 105.8811 102.94029 105.36719 99.921141 105.36719 93.132812 L 105.36719 49.667969 C 105.36719 42.879641 105.8811 39.858538 106.86133 38.121094 C 107.84158 36.383643 108.76096 35.510748 110.73242 35.132812 L 110.73242 34.400391 L 89 34.400391 z M 134.59961 34.400391 L 134.59961 35.300781 C 137.17665 36.218793 138.06719 36.949594 139.64453 39.681641 C 150.0752 63.768601 160.9418 87.722934 171.66992 111.69922 L 173.20117 111.69922 C 173.20117 111.69922 204.5886 40.360205 206.25 38.279297 C 207.9114 36.198389 208.76241 35.971292 210.19922 35.300781 L 210.19922 34.400391 L 190.25195 34.400391 L 190.25195 35.300781 C 191.01823 35.39657 191.59325 35.837474 192.16797 36.316406 C 193.70056 38.136359 192.7431 40.818051 191.68945 43.404297 L 172.22461 90.121094 L 153.58594 44.859375 C 153.58594 44.859375 151.11402 40.053116 151.83008 37.703125 C 152.15465 36.637931 153.05555 35.492356 154.30078 35.300781 L 154.30078 34.400391 L 134.59961 34.400391 z M 233.19922 34.400391 L 233.19922 35.132812 C 235.17068 35.510748 236.09007 36.383643 237.07031 38.121094 C 238.05055 39.858538 238.56641 42.879641 238.56641 49.667969 L 238.56641 93.132812 C 238.56641 99.92114 238.05055 102.94029 237.07031 104.67773 C 236.09007 106.41518 235.17068 107.28808 233.19922 107.66602 L 233.19922 108.40039 L 254.93164 108.40039 L 254.93164 107.66602 C 252.96018 107.28808 252.04275 106.41518 251.0625 104.67773 C 250.08227 102.94029 249.56641 99.921141 249.56641 93.132812 L 249.56641 49.667969 C 249.56641 42.879641 250.08227 39.858538 251.0625 38.121094 C 252.04275 36.383643 252.96018 35.510748 254.93164 35.132812 L 254.93164 34.400391 L 233.19922 34.400391 z M 290.09961 34.400391 L 290.09961 35.132812 C 292.07107 35.510748 292.99046 36.383643 293.9707 38.121094 C 294.95094 39.858538 295.46484 42.879641 295.46484 49.667969 C 295.46484 59.663039 295.5 80.953921 295.5 90.958984 C 295.54447 96.25828 295.46289 101.65494 294.01758 104.73828 C 293.24675 106.3763 291.70572 107.24284 290.16406 107.43555 L 290.16406 108.40039 L 331.38086 108.40039 L 333.01953 94.099609 L 332.26953 94.099609 C 331.4987 95.833986 330.69206 97.059244 329.15039 98.119141 C 326.93423 99.564454 324.6289 99.90625 322.02734 99.90625 C 319.05047 99.90625 313.62726 99.749027 309.71875 99.736328 C 307.88984 99.736328 307.13681 97.91637 306.83789 96.800781 C 306.53897 95.685192 306.4668 89.599609 306.4668 89.599609 L 306.4668 51.982422 L 306.4668 49.667969 C 306.46621 42.879641 306.98266 39.858538 307.96289 38.121094 C 308.94314 36.383643 309.86057 35.510749 311.83203 35.132812 L 311.83203 34.400391 L 290.09961 34.400391 z M 358.19922 34.400391 L 358.19922 35.132812 C 360.17067 35.510748 361.09007 36.383643 362.07031 38.121094 C 363.05055 39.858538 363.56641 42.879641 363.56641 49.667969 L 363.56641 93.132812 C 363.56641 99.92114 363.05055 102.94029 362.07031 104.67773 C 361.09007 106.41518 360.17067 107.28808 358.19922 107.66602 L 358.19922 108.40039 L 379.93164 108.40039 L 379.93164 107.66602 C 377.96018 107.28808 377.04275 106.41518 376.0625 104.67773 C 375.08227 102.94029 374.56641 99.921141 374.56641 93.132812 L 374.56641 49.667969 C 374.56641 42.879641 375.08227 39.858538 376.0625 38.121094 C 377.04275 36.383643 377.96018 35.510748 379.93164 35.132812 L 379.93164 34.400391 L 358.19922 34.400391 z M 413.19922 34.400391 L 413.19922 48 L 414.04688 48 C 415.06288 46.159777 415.62759 45.261065 417.55469 44.490234 C 420.2526 43.333983 425.22394 43.167969 429.94531 43.167969 L 446.71094 43.167969 L 410 108.40039 L 463.48047 108.40039 L 465.11914 93.560547 L 464.05859 93.560547 C 464.00097 94.885876 463.32468 96.269322 462.24414 97.132812 C 458.59206 99.660668 453.58416 99.724238 449.98633 99.728516 L 428.01758 99.728516 L 464.34375 35.458984 L 464.34375 34.400391 L 413.19922 34.400391 z M 570.75977 34.400391 L 569.69922 47.986328 L 570.34961 47.986328 C 571.60224 45.962889 572.46942 44.708985 574.68555 44.130859 C 578.1543 43.167315 581.42904 43.361328 585.57227 43.361328 L 588.84961 43.361328 L 588.84961 96.162109 C 588.84961 99.727215 588.65625 102.52214 586.92188 105.31641 C 586.15104 106.56902 585.09179 107.24284 583.64648 107.43555 L 583.64648 108.40039 L 605.69922 108.40039 L 605.69922 107.43555 C 603.96484 107.24284 602.76434 106.2793 601.80078 104.54492 C 600.35547 101.94336 600.21875 98.185549 600.21875 95.873047 L 600.21875 43.167969 L 603.6875 43.167969 C 607.34895 43.167969 612.93685 42.686848 616.21289 45.095703 C 617.94726 46.348308 618.33332 46.541014 619.29688 47.986328 L 619.95312 47.986328 L 618.41211 34.400391 L 570.75977 34.400391 z M 647.19922 34.400391 L 647.19922 35.132812 C 649.17068 35.510748 650.09007 36.383643 651.07031 38.121094 C 652.05055 39.858538 652.56641 42.879641 652.56641 49.667969 L 652.56641 93.132812 C 652.56641 99.921139 652.05055 102.94029 651.07031 104.67773 C 650.09007 106.41518 649.17068 107.28808 647.19922 107.66602 L 647.19922 108.40039 L 668.93164 108.40039 L 668.93164 107.66602 C 666.96018 107.28808 666.04275 106.41518 665.0625 104.67773 C 664.08227 102.94029 663.56641 99.92114 663.56641 93.132812 L 663.56641 49.667969 C 663.56641 42.879641 664.08227 39.858538 665.0625 38.121094 C 666.04275 36.383643 666.96018 35.510748 668.93164 35.132812 L 668.93164 34.400391 L 647.19922 34.400391 z M 735.81641 41.517578 C 752.24183 41.517578 763.25586 52.740699 763.25586 69.816406 C 763.25586 85.836875 754.23566 101.1875 735.81641 101.1875 C 717.58706 101.1875 708.47266 86.2205 708.47266 70.679688 C 708.47266 55.522597 718.82137 41.517578 735.81641 41.517578 z M 520.58398 52.742188 L 531.7793 79.675781 L 509.48438 79.675781 L 520.58398 52.742188 z"/>
<path id="vi" style="fill:#8a3100" d="M 907.59961 34.341797 L 907.59961 35.398438 C 909.1274 35.494476 911.05491 36.839731 912.00977 38.568359 C 917.77249 51.485632 944.69922 111.8418 944.69922 111.8418 L 946 111.8418 L 975.89062 44.136719 C 977.55552 40.67472 979.54451 35.528873 983.30078 35.398438 L 983.30078 34.341797 L 963.47852 34.341797 L 963.47852 35.398438 C 964.24243 35.494476 964.8138 35.781545 965.38672 36.261719 C 966.9145 38.08638 965.96053 40.776203 964.91016 43.369141 L 945.15039 90.109375 L 926.25 44.177734 C 925.38431 42.032017 924.36044 39.745621 924.71875 37.917969 C 924.93443 36.817829 925.49451 35.699411 927.33203 35.398438 L 927.33203 34.341797 L 907.59961 34.341797 z M 1002.2676 34.400391 L 1002.2676 35.132812 C 1004.239 35.510748 1005.1584 36.383643 1006.1387 38.121094 C 1007.1189 39.858538 1007.6328 42.879641 1007.6328 49.667969 L 1007.6328 93.132812 C 1007.6328 99.921139 1007.1189 102.94029 1006.1387 104.67773 C 1005.1584 106.41518 1004.239 107.28808 1002.2676 107.66602 L 1002.2676 108.40039 L 1024 108.40039 L 1024 107.66602 C 1022.0286 107.28808 1021.1112 106.41518 1020.1309 104.67773 C 1019.1507 102.94029 1018.6348 99.92114 1018.6348 93.132812 L 1018.6348 49.667969 C 1018.6348 42.879641 1019.1507 39.858538 1020.1309 38.121094 C 1021.1112 36.383643 1022.0286 35.510748 1024 35.132812 L 1024 34.400391 L 1002.2676 34.400391 z"/>
</svg>